<?xml version="1.0" encoding="iso-8859-1"?>
<!-- Generator: Adobe Illustrator 19.0.0, SVG Export Plug-In . SVG Version: 6.00 Build 0)  -->
<svg version="1.1" id="Layer_1" xmlns="http://www.w3.org/2000/svg" xmlns:xlink="http://www.w3.org/1999/xlink" x="0px" y="0px"
	 viewBox="0 0 297 297" style="enable-background:new 0 0 297 297;" xml:space="preserve">
<g>
	<g>
		<circle style="fill:#662621;" cx="148.5" cy="148.5" r="148.5"/>
	</g>
	<g>
		<path style="fill:#4C1B19;" d="M108.923,251.766l50.04,44.862C236.094,291.258,297,226.996,297,148.5
			c0-2.886-0.091-5.751-0.254-8.596L237.88,81.923L108.923,251.766z"/>
	</g>
	<g>
		<path style="fill:#E04332;" d="M37,148.5c0-11.403,13.108-20.596,16.449-30.885c3.463-10.664-1.619-25.783,4.842-34.66
			c6.525-8.965,22.517-8.774,31.482-15.298c8.877-6.46,13.6-21.765,24.264-25.228c10.29-3.341,23.06,6.155,34.463,6.155
			s24.174-9.496,34.463-6.155c10.664,3.463,15.388,18.768,24.264,25.228c8.966,6.524,24.957,6.333,31.482,15.298
			c6.46,8.877,1.379,23.995,4.842,34.659C246.893,127.904,260,137.097,260,148.5s-13.107,20.596-16.448,30.885
			c-3.462,10.664,1.618,25.783-4.842,34.66c-6.525,8.965-22.516,8.774-31.482,15.298c-8.876,6.46-13.6,21.765-24.264,25.228
			c-10.29,3.341-23.06-6.155-34.464-6.155c-11.403,0-24.174,9.496-34.463,6.155c-10.664-3.463-15.388-18.768-24.265-25.228
			c-8.965-6.524-24.957-6.332-31.482-15.298c-6.46-8.877-1.379-23.995-4.842-34.659C50.108,169.096,37,159.903,37,148.5z"/>
	</g>
	<g>
		<path style="fill:#FFFFFF;" d="M61.832,148.5c0-8.864,10.188-16.009,12.785-24.007c2.692-8.289-1.258-20.041,3.763-26.941
			c5.072-6.969,17.502-6.819,24.471-11.891c6.9-5.021,10.572-16.917,18.861-19.609c7.998-2.597,17.924,4.784,26.788,4.784
			s18.79-7.382,26.788-4.784c8.289,2.692,11.961,14.588,18.86,19.609c6.969,5.071,19.4,4.922,24.472,11.891
			c5.021,6.9,1.071,18.652,3.763,26.941c2.597,7.998,12.785,15.143,12.785,24.007s-10.188,16.009-12.785,24.007
			c-2.691,8.289,1.258,20.041-3.764,26.941c-5.071,6.969-17.502,6.819-24.471,11.891c-6.899,5.021-10.571,16.917-18.86,19.609
			c-7.998,2.597-17.925-4.785-26.788-4.785c-8.864,0-18.79,7.382-26.788,4.785c-8.289-2.692-11.961-14.588-18.861-19.609
			c-6.968-5.071-19.399-4.922-24.471-11.891c-5.021-6.9-1.072-18.652-3.763-26.941C72.02,164.509,61.832,157.364,61.832,148.5z"/>
	</g>
	<g>
		<g>
			<path style="fill:#79302A;" d="M152.769,172.466h-16.934c-2.762,0-5-2.238-5-5v-37.93c0-2.762,2.238-5,5-5h16.934
				c2.762,0,5,2.238,5,5c0,2.762-2.238,5-5,5h-11.934v27.93h11.934c2.762,0,5,2.238,5,5S155.53,172.466,152.769,172.466z"/>
		</g>
		<g>
			<path style="fill:#79302A;" d="M152.769,153.291h-15.522c-2.762,0-5-2.238-5-5s2.238-5,5-5h15.522c2.762,0,5,2.238,5,5
				S155.53,153.291,152.769,153.291z"/>
		</g>
		<g>
			<path style="fill:#79302A;" d="M119.078,172.466c-1.766,0-3.441-0.938-4.346-2.527L102.5,148.437v19.029c0,2.762-2.238,5-5,5
				s-5-2.238-5-5v-37.93c0-2.269,1.527-4.254,3.722-4.834c2.194-0.578,4.503,0.39,5.624,2.361l12.232,21.502v-19.029
				c0-2.762,2.238-5,5-5s5,2.238,5,5v37.93c0,2.269-1.527,4.254-3.722,4.834C119.932,172.412,119.502,172.466,119.078,172.466z"/>
		</g>
		<g>
			<path style="fill:#79302A;" d="M168.584,172.467c-0.472,0-0.949-0.066-1.419-0.206c-2.124-0.628-3.581-2.579-3.581-4.794
				l-0.002-37.934c0-2.761,2.238-5,5-5c2.761,0,5,2.238,5,5l0.001,21.044l6.264-9.653c0.922-1.421,2.5-2.278,4.194-2.278
				c1.693,0,3.272,0.857,4.194,2.278l6.264,9.652l-0.001-21.043c0-2.761,2.238-5,5-5c2.761,0,5,2.238,5,5l0.002,37.934
				c0,2.215-1.457,4.165-3.581,4.794c-2.119,0.633-4.407-0.215-5.613-2.072l-11.265-17.357l-11.263,17.357
				C171.84,171.636,170.246,172.467,168.584,172.467z"/>
		</g>
	</g>
</g>
<g>
</g>
<g>
</g>
<g>
</g>
<g>
</g>
<g>
</g>
<g>
</g>
<g>
</g>
<g>
</g>
<g>
</g>
<g>
</g>
<g>
</g>
<g>
</g>
<g>
</g>
<g>
</g>
<g>
</g>
</svg>
